HIERARCHY
ROOT root
{
  OFFSET 0 93.2929 0
  CHANNELS 6 Xposition Yposition Zposition Zrotation Xrotation Yrotation
  JOINT torso_1
  {
    OFFSET 0 5.07867 -1.15138
    CHANNELS 6 Xposition Yposition Zposition Zrotation Xrotation Yrotation
    JOINT torso_2
    {
      OFFSET 0 5.61661 1.07143
      CHANNELS 6 Xposition Yposition Zposition Zrotation Xrotation Yrotation
      JOINT torso_3
      {
        OFFSET -1.02604e-17 5.98978 0.11501
        CHANNELS 6 Xposition Yposition Zposition Zrotation Xrotation Yrotation
        JOINT torso_4
        {
          OFFSET -1.10457e-17 6.50583 -0.443523
          CHANNELS 6 Xposition Yposition Zposition Zrotation Xrotation Yrotation
          JOINT torso_5
          {
            OFFSET -1.97295e-17 7.60548 -1.50593
            CHANNELS 6 Xposition Yposition Zposition Zrotation Xrotation Yrotation
            JOINT torso_6
            {
              OFFSET -2.53307e-17 9.49737 -0.914492
              CHANNELS 6 Xposition Yposition Zposition Zrotation Xrotation Yrotation
              JOINT torso_7
              {
                OFFSET -2.90401e-17 10.5513 1.57691
                CHANNELS 6 Xposition Yposition Zposition Zrotation Xrotation Yrotation
                JOINT neck_1
                {
                  OFFSET -1.29193e-17 4.78644 0.715339
                  CHANNELS 6 Xposition Yposition Zposition Zrotation Xrotation Yrotation
                  JOINT neck_2
                  {
                    OFFSET -1.8116e-17 4.82109 0.421791
                    CHANNELS 6 Xposition Yposition Zposition Zrotation Xrotation Yrotation
                    JOINT head
                    {
                      OFFSET -2.00958e-17 4.83041 0.765062
                      CHANNELS 6 Xposition Yposition Zposition Zrotation Xrotation Yrotation
                      End Site
                      {
                        OFFSET 0 0.1 0
                      }
                    }
                  }
                }
                JOINT l_shoulder
                {
                  OFFSET 1.23299 -7.60731 7.53374
                  CHANNELS 6 Xposition Yposition Zposition Zrotation Xrotation Yrotation
                  JOINT l_up_arm
                  {
                    OFFSET 12.9547 3.2495 -3.26872
                    CHANNELS 6 Xposition Yposition Zposition Zrotation Xrotation Yrotation
                    JOINT l_low_arm
                    {
                      OFFSET 29.2081 0.0598081 0.137039
                      CHANNELS 6 Xposition Yposition Zposition Zrotation Xrotation Yrotation
                      JOINT l_hand
                      {
                        OFFSET 24.234 0.0496219 0.113701
                        CHANNELS 6 Xposition Yposition Zposition Zrotation Xrotation Yrotation
                        End Site
                        {
                          OFFSET 0.1 0 0
                        }
                      }
                    }
                  }
                }
                JOINT r_shoulder
                {
                  OFFSET -1.23299 -7.60729 7.53365
                  CHANNELS 6 Xposition Yposition Zposition Zrotation Xrotation Yrotation
                  JOINT r_up_arm
                  {
                    OFFSET -12.9547 3.2495 -3.26872
                    CHANNELS 6 Xposition Yposition Zposition Zrotation Xrotation Yrotation
                    JOINT r_low_arm
                    {
                      OFFSET -29.2081 0.0598081 0.137039
                      CHANNELS 6 Xposition Yposition Zposition Zrotation Xrotation Yrotation
                      JOINT r_hand
                      {
                        OFFSET -24.234 0.0496218 0.113702
                        CHANNELS 6 Xposition Yposition Zposition Zrotation Xrotation Yrotation
                        End Site
                        {
                          OFFSET -0.1 0 0
                        }
                      }
                    }
                  }
                }
              }
            }
          }
        }
      }
    }
  }
  JOINT l_up_leg
  {
    OFFSET 9.23673 -4.20556 2.0327
    CHANNELS 6 Xposition Yposition Zposition Zrotation Xrotation Yrotation
    JOINT l_low_leg
    {
      OFFSET -0.852353 -38.7721 -0.655187
      CHANNELS 6 Xposition Yposition Zposition Zrotation Xrotation Yrotation
      JOINT l_foot
      {
        OFFSET -2.32622 -40.4017 -6.04875
        CHANNELS 6 Xposition Yposition Zposition Zrotation Xrotation Yrotation
        JOINT l_toes
        {
          OFFSET 0.779096 -9.8844 12.4959
          CHANNELS 6 Xposition Yposition Zposition Zrotation Xrotation Yrotation
          End Site
          {
            OFFSET 0 0 0.1
          }
        }
      }
    }
  }
  JOINT r_up_leg
  {
    OFFSET -9.23673 -4.20556 2.0327
    CHANNELS 6 Xposition Yposition Zposition Zrotation Xrotation Yrotation
    JOINT r_low_leg
    {
      OFFSET 0.852353 -38.7721 -0.655187
      CHANNELS 6 Xposition Yposition Zposition Zrotation Xrotation Yrotation
      JOINT r_foot
      {
        OFFSET 2.32622 -40.4017 -6.04875
        CHANNELS 6 Xposition Yposition Zposition Zrotation Xrotation Yrotation
        JOINT r_toes
        {
          OFFSET -0.779096 -9.8844 12.4959
          CHANNELS 6 Xposition Yposition Zposition Zrotation Xrotation Yrotation
          End Site
          {
            OFFSET 0 0 0.1
          }
        }
      }
    }
  }
}
MOTION
Frames: 4
Frame Time: 0.016667
-17.5834 93.2556 80.1061 3.24852 -2.62714 -2.6656 0 5.07867 -1.15138 -1.17367 5.60113 -0.302349 0 5.61661 1.07143 -0.69927 5.06456 -0.42679 -1.02604e-17 5.98978 0.11501 -0.382724 5.07307 -0.320774 -1.10457e-17 6.50583 -0.443523 -0.0652495 4.84746 -0.280806 -1.97295e-17 7.60548 -1.50593 0.247348 3.96853 -0.335028 -2.53307e-17 9.49737 -0.914492 0.503093 3.68898 -0.663083 -2.90401e-17 10.5513 1.57691 0.0337597 0.567402 0.00780941 -1.29193e-17 4.78644 0.715339 0.433522 7.78039 -2.73446 -1.8116e-17 4.82109 0.421791 0.191131 -8.06003 -1.40854 -2.00958e-17 4.83041 0.765062 -3.62873 -12.032 1.30018 1.23299 -7.60731 7.53374 5.62479 0.509179 0.158484 12.9547 3.2495 -3.26872 -75.6566 28.2327 -18.1686 29.2081 0.0598081 0.137039 3.80001 -0.602921 -18.6168 24.234 0.0496219 0.113701 0.331089 -21.9256 -2.434 -1.23299 -7.60729 7.53365 -1.00879 1.02378 1.68794 -12.9547 3.2495 -3.26872 74.9716 9.80352 10.3377 -29.2081 0.0598081 0.137039 -2.75612 -0.309162 13.3945 -24.234 0.0496218 0.113702 -1.99464 7.32857 2.1887 9.23673 -4.20556 2.0327 0.103736 -14.8898 -12.8902 -0.852353 -38.7721 -0.655187 -1.61711 6.03328 -0.0201782 -2.32622 -40.4017 -6.04875 -8.1555 15.1239 16.4175 0.779096 -9.8844 12.4959 -3.72721e-16 -8.07563e-16 2.48481e-17 -9.23673 -4.20556 2.0327 -3.5302 0.0545891 21.3862 0.852353 -38.7721 -0.655187 2.19684 8.18052 -0.0140753 2.32622 -40.4017 -6.04875 -1.46209 -4.46306 -15.1523 -0.779096 -9.8844 12.4959 -2.72947e-16 -5.75926e-16 -1.27605e-14 
-17.8819 93.3428 80.0698 3.26176 -2.73865 -2.37563 0 5.07867 -1.15138 -1.18819 5.50947 -0.329234 0 5.61661 1.07143 -0.695637 4.96733 -0.462852 -1.02604e-17 5.98978 0.11501 -0.367656 4.97369 -0.355931 -1.10457e-17 6.50583 -0.443523 -0.0395768 4.73933 -0.315146 -1.97295e-17 7.60548 -1.50593 0.276644 3.86115 -0.371157 -2.53307e-17 9.49737 -0.914492 0.530831 3.58192 -0.705755 -2.90401e-17 10.5513 1.57691 0.0313796 0.578666 0.0200844 -1.29193e-17 4.78644 0.715339 0.444471 7.33232 -2.81101 -1.8116e-17 4.82109 0.421791 0.222169 -8.03924 -1.44391 -2.00958e-17 4.83041 0.765062 -3.58874 -11.8783 1.45743 1.23299 -7.60731 7.53374 5.38259 0.712398 0.260232 12.9547 3.2495 -3.26872 -76 28.3671 -17.4226 29.2081 0.0598081 0.137039 3.76534 -0.591502 -18.4412 24.234 0.0496219 0.113701 0.169437 -23.3166 -2.62842 -1.23299 -7.60729 7.53365 -0.480887 1.28416 1.76894 -12.9547 3.2495 -3.26872 74.5889 8.71127 10.0904 -29.2081 0.0598081 0.137039 -2.63136 -0.280837 12.7784 -24.234 0.0496218 0.113702 -2.30262 9.05257 2.3095 9.23673 -4.20556 2.0327 -0.0809781 -14.4205 -13.7867 -0.852353 -38.7721 -0.655187 -1.90183 7.08976 -0.00608137 -2.32622 -40.4017 -6.04875 -7.59394 13.5279 16.2923 0.779096 -9.8844 12.4959 7.42895e-17 -7.93594e-16 1.0879e-17 -9.23673 -4.20556 2.0327 -3.47813 0.562463 20.9701 0.852353 -38.7721 -0.655187 1.96545 7.32533 0.00221231 2.32622 -40.4017 -6.04875 -1.48332 -3.98096 -15.1014 -0.779096 -9.8844 12.4959 -5.96354e-16 -5.59082e-16 -1.27471e-14 
-18.1594 93.414 80.06 3.27989 -2.82075 -2.10578 0 5.07867 -1.15138 -1.20708 5.38852 -0.351091 0 5.61661 1.07143 -0.697276 4.84998 -0.493118 -1.02604e-17 5.98978 0.11501 -0.356882 4.86171 -0.38517 -1.10457e-17 6.50583 -0.443523 -0.0171834 4.63018 -0.343571 -1.97295e-17 7.60548 -1.50593 0.304875 3.76073 -0.400773 -2.53307e-17 9.49737 -0.914492 0.559956 3.48422 -0.742356 -2.90401e-17 10.5513 1.57691 0.0280332 0.586679 0.0326207 -1.29193e-17 4.78644 0.715339 0.46061 6.91916 -2.91661 -1.8116e-17 4.82109 0.421791 0.277981 -8.01443 -1.49214 -2.00958e-17 4.83041 0.765062 -3.5623 -11.7238 1.65238 1.23299 -7.60731 7.53374 5.15631 0.893585 0.386231 12.9547 3.2495 -3.26872 -76.3493 28.5101 -16.6374 29.2081 0.0598081 0.137039 3.73917 -0.582957 -18.3087 24.234 0.0496219 0.113701 -0.0212461 -24.796 -2.85374 -1.23299 -7.60729 7.53365 -0.0132018 1.52568 1.79659 -12.9547 3.2495 -3.26872 74.2035 7.76694 9.79799 -29.2081 0.0598081 0.137039 -2.51689 -0.256086 12.2144 -24.234 0.0496218 0.113702 -2.58842 10.8487 2.39237 9.23673 -4.20556 2.0327 -0.281788 -13.9624 -14.4187 -0.852353 -38.7721 -0.655187 -2.2343 8.31871 0.0170387 -2.32622 -40.4017 -6.04875 -6.98013 11.9177 16.1738 0.779096 -9.8844 12.4959 1.05139e-15 -7.53232e-16 -2.94829e-17 -9.23673 -4.20556 2.0327 -3.42596 1.02789 20.5651 0.852353 -38.7721 -0.655187 1.75116 6.5311 0.0141984 2.32622 -40.4017 -6.04875 -1.53214 -3.55537 -15.0562 -0.779096 -9.8844 12.4959 -1.06808e-15 -5.39427e-16 -1.27274e-14 
-18.4213 93.4588 80.0793 3.3002 -2.87564 -1.90062 0 5.07867 -1.15138 -1.23783 5.24572 -0.359587 0 5.61661 1.07143 -0.711777 4.7174 -0.51044 -1.02604e-17 5.98978 0.11501 -0.357474 4.74071 -0.401348 -1.10457e-17 6.50583 -0.443523 -0.00491782 4.52074 -0.358977 -1.97295e-17 7.60548 -1.50593 0.327114 3.66618 -0.415609 -2.53307e-17 9.49737 -0.914492 0.58896 3.39557 -0.763889 -2.90401e-17 10.5513 1.57691 0.0236377 0.591672 0.0453565 -1.29193e-17 4.78644 0.715339 0.47443 6.51544 -3.03163 -1.8116e-17 4.82109 0.421791 0.353125 -7.99964 -1.54422 -2.00958e-17 4.83041 0.765062 -3.52627 -11.5585 1.86835 1.23299 -7.60731 7.53374 4.94737 1.05659 0.52218 12.9547 3.2495 -3.26872 -76.6999 28.6399 -15.8137 29.2081 0.0598081 0.137039 3.72694 -0.578991 -18.2469 24.234 0.0496219 0.113701 -0.21369 -26.2625 -3.08765 -1.23299 -7.60729 7.53365 0.411895 1.76076 1.78466 -12.9547 3.2495 -3.26872 73.825 7.02461 9.47199 -29.2081 0.0598081 0.137039 -2.41053 -0.234142 11.6913 -24.234 0.0496218 0.113702 -2.83755 12.6562 2.40934 9.23673 -4.20556 2.0327 -0.47776 -13.4768 -14.8433 -0.852353 -38.7721 -0.655187 -2.6071 9.68941 0.0514566 -2.32622 -40.4017 -6.04875 -6.29616 10.2034 16.061 0.779096 -9.8844 12.4959 1.37585e-15 -7.36601e-16 -4.61138e-17 -9.23673 -4.20556 2.0327 -3.37085 1.43703 20.2594 0.852353 -38.7721 -0.655187 1.56001 5.82106 0.0223705 2.32622 -40.4017 -6.04875 -1.60763 -3.23588 -15.0205 -0.779096 -9.8844 12.4959 -1.60711e-15 -5.17915e-16 -1.27031e-14 
